<svg xmlns="http://www.w3.org/2000/svg" viewBox="0 0 100 100" width="100" height="100">
  <style>
    .brain-outline {
      fill: #f2b5d4; /* Light pink fill */
      stroke: #c08497; /* Darker pink stroke */
      stroke-width: 3;
      stroke-linecap: round;
      stroke-linejoin: round;
    }
    .eye {
      fill: #2e2e2e; /* Black fill for eyes */
    }
    .mouth {
      fill: none;
      stroke: #2e2e2e; /* Black stroke for mouth */
      stroke-width: 2;
      stroke-linecap: round;
    }
  </style>
  <path class="brain-outline" d="M50,10 C25,10 10,30 10,50 C10,70 25,90 50,90 C60,90 70,85 75,80 C85,70 85,60 85,50 C85,30 75,10 50,10 Z M50,20 C65,20 75,30 75,50 C75,55 72,65 65,70 C60,73 55,75 50,75 C35,75 25,65 25,50 C25,35 35,20 50,20 Z" />
  <path class="brain-outline" d="M50,10 C55,15 60,25 60,35 C60,45 55,55 45,60 C40,63 35,65 30,60 C25,55 25,45 30,35 C35,25 45,15 50,10" />
  
  <!-- Cute face -->
  <circle class="eye" cx="40" cy="45" r="3" />
  <circle class="eye" cx="60" cy="45" r="3" />
  <path class="mouth" d="M45,55 Q50,60 55,55" />
</svg>
